<?xml version="1.0" encoding="utf-8"?>
<!-- Generator: Adobe Illustrator 25.1.0, SVG Export Plug-In . SVG Version: 6.00 Build 0)  -->
<svg version="1.1" id="Layer_1" xmlns="http://www.w3.org/2000/svg" xmlns:xlink="http://www.w3.org/1999/xlink" x="0px" y="0px"
	 viewBox="0 0 692.8 883.5" style="enable-background:new 0 0 692.8 883.5;" xml:space="preserve">
<style type="text/css">
	.st0{fill:#5479BC;}
	.st1{fill:#6F93CC;}
	.st2{fill:#6589C6;}
	.st3{fill:#FFFFFF;}
	.st4{fill:#2B497D;}
	.st5{fill:#89C762;}
	.st6{fill:#8AC762;}
	.st7{fill:#57863C;}
	.st8{fill:#010101;}
	.st9{fill:#567BBE;}
	.st10{fill:#78B350;}
	.st11{fill:#355998;}
	.st12{fill:#375B9C;}
	.st13{fill:#486D33;}
	.st14{fill:#78B350;stroke:#FFFFFF;stroke-width:2.4449;stroke-linecap:round;stroke-miterlimit:10;}
	.st15{fill:#7CB953;}
	.st16{fill:#7AAE55;}
	.st17{fill:#8BC681;}
	.st18{fill:#4A72B8;}
	.st19{fill:#7DBB6F;}
	.st20{fill:#75AF67;}
	.st21{fill:#85C25B;}
	.st22{fill:#7AAE55;stroke:#FFFFFF;stroke-width:2.4449;stroke-linecap:round;stroke-miterlimit:10;}
</style>
<g>
	<g>
		<g>
			<polygon class="st0" points="203.1,13.8 556.4,25.1 517.7,80 234.7,66.9 			"/>
		</g>
		<g>
			<polygon class="st1" points="214,380.1 115.3,526.9 186.1,528.2 472.5,533.4 414.4,433.3 296.6,429.1 328.9,380.1 281.3,380.1 
							"/>
		</g>
		<g>
			<line class="st2" x1="186.1" y1="528.2" x2="281.3" y2="380.1"/>
			<path class="st3" d="M186.1,529.5c-0.3,0-0.5-0.1-0.7-0.2c-0.6-0.4-0.8-1.2-0.4-1.9l95.2-148.1c0.4-0.6,1.3-0.8,1.9-0.4
				c0.6,0.4,0.8,1.3,0.4,1.9l-95.2,148.1C187,529.3,186.6,529.5,186.1,529.5z"/>
		</g>
		<g>
			<polygon class="st4" points="115.3,526.9 149.8,593 509.6,597.9 472.5,533.4 			"/>
			<path class="st3" d="M512,599.3l-363-4.9l-0.4-0.7L113,525.5l2.3,0l358,6.5l0.4,0.7L512,599.3z M150.7,591.7l356.6,4.8
				l-35.5-61.8l-354.1-6.4L150.7,591.7z"/>
		</g>
		<g>
			<polygon class="st5" points="201.5,15 16.7,314.7 359.6,320.4 341,288.1 259.5,287 99,284.9 233.1,67.7 			"/>
		</g>
		<g>
			<polygon class="st6" points="239.9,86.5 259.5,119.5 198.2,221.8 263.6,224 307.1,224.5 337,275.2 129.7,270.4 			"/>
			<path class="st3" d="M339.4,276.6l-212.1-5l1.2-2L239.9,83.9l21.2,35.6l-60.5,101l63.1,2.1l44.2,0.6L339.4,276.6z M132,269.1
				l202.5,4.7l-28.2-47.9l-42.7-0.5l-66.6-3.8l61.2-102.2l-18.3-30.1L132,269.1z"/>
		</g>
		<g>
			<polygon class="st7" points="293.9,180.3 265.3,224 198.7,222 259.5,119.5 			"/>
			<path class="st3" d="M266,225.4l-68.8-3.2l62.4-105.4l35.9,63.6L266,225.4z M200.6,220.5l64,0.1l27.8-40.3l-32.8-58L200.6,220.5z
				"/>
		</g>
		<g>
			<polygon class="st8" points="337,180.6 374.9,119.5 259.5,119.5 293.9,180.3 			"/>
			<path class="st3" d="M337.7,182l-44.6-0.3l-35.9-63.5h120.2L337.7,182z M294.7,179l41.5,0.3l36.2-58.4H261.9L294.7,179z"/>
		</g>
		<g>
			<polygon class="st9" points="312.6,221.8 374.9,121.7 413.1,176 384.6,221.8 			"/>
			<path class="st3" d="M385.3,223.2h-75.2l64.7-103.9l39.9,56.7L385.3,223.2z M315,220.4h68.8l27.6-44.4L375,124.2L315,220.4z"/>
		</g>
		<g>
			<polygon class="st10" points="472.5,533.4 657.9,221.8 307.1,221.8 337,275.2 589.9,275.2 457.2,505.9 			"/>
			<path class="st3" d="M472.5,536.1l-16.8-30.2l0.4-0.7l131.5-228.7H336.2l-31.4-56.2h355.5L472.5,536.1z M458.8,505.9l13.8,24.7
				l183-307.5H309.5l28.3,50.7h254.5L458.8,505.9z"/>
		</g>
		<g>
			<polyline class="st10" points="414.4,433.3 476.5,323.6 359.6,320.4 341,288.1 566.1,288.1 449,491.2 			"/>
			<path class="st3" d="M449,492.6c-0.2,0-0.5-0.1-0.7-0.2c-0.7-0.4-0.9-1.2-0.5-1.9l115.9-201H343.4l17,29.6l118.5,3.3L415.6,434
				c-0.4,0.7-1.2,0.9-1.9,0.5c-0.7-0.4-0.9-1.2-0.5-1.9l61-107.7l-115.5-3.2l-20.1-35h229.8l-1.2,2L450.2,491.9
				C449.9,492.3,449.5,492.6,449,492.6z"/>
		</g>
		<g>
			<polygon class="st9" points="296.6,429.1 328.9,494 450,492.8 413.2,434.9 			"/>
			<path class="st3" d="M328.1,495.4l-0.4-0.8l-33.3-65l119.6,2.8l38.5,61.8L328.1,495.4z M297.6,431l32.2,61.6l117.8-1.1
				l-35.1-55.3L297.6,431z"/>
		</g>
		<g>
			<polygon class="st2" points="193.2,379.5 99.5,519.6 118.8,519 214,380.1 			"/>
			<path class="st3" d="M96.9,521l95.6-142.9l24,0.6l-97,141.6L96.9,521z M193.9,380.9l-91.8,137.2l15.9-0.4l93.4-136.3L193.9,380.9
				z"/>
		</g>
		<g>
			<polygon class="st11" points="365.4,431.8 391.2,386.5 328.9,380.1 296.6,429.1 			"/>
			<path class="st3" d="M366.2,433.2l-72-3.5l34.1-51.5l65.2,7.2L366.2,433.2z M299.1,427.8l65.5,2.6l24.4-42.8l-59.4-6.2
				L299.1,427.8z"/>
		</g>
		<g>
			<polygon class="st12" points="556.4,25.1 593.9,85.5 504.4,221.5 427.3,221.8 			"/>
			<path class="st3" d="M424.7,223.2L556.4,22.6l39.1,62.9l-90.4,137.4L424.7,223.2z M556.4,27.7L429.8,220.4l73.8-0.3l88.7-134.7
				L556.4,27.7z"/>
		</g>
		<g>
			<polygon class="st2" points="202,13.8 190.6,2.7 566,14.5 556.4,25.1 			"/>
			<path class="st3" d="M557,26.5l-0.6,0l-355-11.3l-14.3-14l381.8,12.1L557,26.5z M202.5,12.5l353.3,11.3l7.2-7.9L194,4.2
				L202.5,12.5z"/>
		</g>
		<g>
			<polygon class="st6" points="18.9,304.4 2.6,302.3 189.5,2.1 202,13.8 			"/>
			<path class="st3" d="M19.6,305.8l-19.3-2.4L189.2,0l14.5,13.6L19.6,305.8z M4.9,301.2l13.3,1.7l182-288.8l-8.7-9.1L4.9,301.2z"/>
		</g>
		<g>
			<polygon class="st2" points="374.9,119.5 412,174.9 384.6,221.8 428.4,221.8 509,96.4 240.2,86.5 259.5,119.5 			"/>
			<path class="st3" d="M429.1,223.2h-48.3l28.9-48.2l-35.6-54H258.7l-21-35.8l273.7,10L429.1,223.2z M386.9,220.4h40.7l78.9-122.8
				L242.6,88l17.7,30.1h115.3l38,56.7L386.9,220.4z"/>
		</g>
		<g>
			<polygon class="st7" points="657.9,223.4 682.8,293.6 509.6,597.9 472.5,533.4 			"/>
			<path class="st3" d="M509.6,600.6l-38.7-67.3l0.4-0.7l186.9-312.4l26,73.5l-0.3,0.5L509.6,600.6z M474.1,533.4l35.5,61.8
				l171.7-301.7l-23.7-66.8L474.1,533.4z"/>
		</g>
		<g>
			<polygon class="st2" points="593.9,85.5 598.3,74.8 563.8,16.7 556.4,25.1 			"/>
			<path class="st3" d="M594.1,88.4L554.7,25l9.3-10.6l35.9,60.3L594.1,88.4z M558.1,25.3l35.6,57.2l3.4-11.1l-32.6-54.1L558.1,25.3
				z"/>
		</g>
		<g>
			<polygon class="st13" points="14.1,314.4 2.6,312 29.2,360.9 45.6,369.4 			"/>
			<path class="st3" d="M49.1,372.7l-20.9-10.9L0,310.1l15,3L49.1,372.7z M30.2,359.8l11.9,6.2l-28.9-50.5l-8-1.6L30.2,359.8z"/>
		</g>
		<g>
			<polygon class="st10" points="418.3,386.5 391.2,431.9 414.4,433.3 440.9,386.5 			"/>
			<path class="st3" d="M415.2,434.7l-26.3-1.7l28.7-47.9h25.7L415.2,434.7z M393.5,430.6l20.1,1.3l24.9-44h-19.5L393.5,430.6z"/>
		</g>
		<g>
			<polygon class="st8" points="359.6,320.4 396.7,386.5 440.9,386.5 476.5,323.6 			"/>
			<path class="st3" d="M441.7,387.9h-45.8L357.2,319l121.6,3.4L441.7,387.9z M397.5,385.2h42.6l34.1-60.3l-112.3-3.1L397.5,385.2z"
				/>
		</g>
		<g>
			<path class="st14" d="M476.5,323.6"/>
		</g>
		<g>
			<polygon class="st15" points="448.3,487.9 414.4,435 478.2,324.2 510,384.3 			"/>
			<path class="st3" d="M448.4,490.5L412.8,435l65.4-113.7l33.4,63.1L448.4,490.5z M416,434.9l32.3,50.4l60.2-101L478.1,327
				L416,434.9z"/>
		</g>
		<g>
			<polygon class="st16" points="198.2,221.8 223.9,272.6 337,275.2 307.1,221.8 			"/>
			<path class="st3" d="M339.3,276.6l-116.2-2.7l-26.2-52.6l111-0.9L339.3,276.6z M224.8,271.2l109.8,2.6l-28.3-50.6H200.4
				L224.8,271.2z"/>
		</g>
		<g>
			<polygon class="st17" points="244.6,318.2 265,287 343.7,288.1 365,320.4 			"/>
			<path class="st3" d="M367.6,321.8l-125.4-2.3l22.1-33.9l80.2,1.1L367.6,321.8z M247.1,316.9l115.3,2.1L343,289.5l-77.3-1.1
				L247.1,316.9z"/>
		</g>
		<g>
			<polygon class="st2" points="186.1,528.2 115.3,526.9 214,379.5 281.3,382.8 			"/>
			<path class="st3" d="M186.8,529.6l-0.8,0l-73.3-1.3l1.4-2.1l99.1-148l70.5,3.4L186.8,529.6z M117.8,525.6l67.5,1.2l93.5-142.7
				l-64.2-3.1L117.8,525.6z"/>
		</g>
		<g>
			<polygon class="st3" points="456.3,505.4 245.6,502.1 259.3,487.5 446.7,489 			"/>
		</g>
		<g>
			<polygon class="st0" points="444.6,53.8 415.4,96.4 506.5,97.7 529,63.9 			"/>
		</g>
		<g>
			<polygon class="st10" points="511.7,212.3 661.2,214.5 691.2,292.3 685,299 682.9,293.5 656.4,223.8 504.4,221.5 			"/>
			<path class="st3" d="M684.5,301.6l-29.1-76.5l-153.8-2.3l9.5-11.9l0.7,0l150.5,2.2l30.6,79.4L684.5,301.6z M507.2,220.2
				l150.1,2.2l28.2,74.1l4.1-4.5l-29.3-76.1l-147.9-2.2L507.2,220.2z"/>
		</g>
		<g>
			<polygon class="st18" points="105.8,528.2 117.4,528.2 149,592.7 499.7,596.4 510,593.8 511.2,592.7 511.2,606.1 142.8,601.8 			
				"/>
			<path class="st3" d="M512.6,607.5L142,603.2l-38.5-76.4h14.7l31.7,64.5l349.7,3.7l9.8-2.5l3.3-2.9V607.5z M143.7,600.5l366.2,4.3
				v-9.5l-10.2,2.5L148.2,594l-31.6-64.5H108L143.7,600.5z"/>
		</g>
		<g>
			<polygon class="st13" points="16.7,314.7 49.4,374.8 402.1,386.5 365,320.4 			"/>
			<path class="st3" d="M404.5,388L48.6,376.2l-34.2-62.8l351.4,5.7L404.5,388z M50.2,373.5l349.5,11.6l-35.5-63.4L19,316.1
				L50.2,373.5z"/>
		</g>
		<g>
			<polygon class="st19" points="365,320.4 390.9,288.1 343.7,288.1 			"/>
			<path class="st3" d="M364.9,322.7l-23.7-35.9h52.6L364.9,322.7z M346.3,289.5l18.9,28.6l23-28.6H346.3z"/>
		</g>
		<g>
			<polygon class="st20" points="435.2,322 455.7,289.2 388.2,288.1 365,320.4 			"/>
			<path class="st3" d="M435.9,323.4l-73.5-1.7l25.1-35l70.6,1.1L435.9,323.4z M367.6,319.1l66.8,1.5l18.8-30.1l-64.4-1L367.6,319.1
				z"/>
		</g>
		<g>
			<polygon class="st10" points="307.1,221.8 655.3,225.4 626.1,275.2 337,275.2 			"/>
			<path class="st3" d="M626.9,276.6H336.2l-31.4-56.2l352.8,3.7L626.9,276.6z M337.8,273.8h287.6l27.5-47.1l-343.4-3.6L337.8,273.8
				z"/>
		</g>
		<g>
			<polygon class="st10" points="511.2,592.7 682.9,293.5 690.4,293.6 511.2,607.8 			"/>
			<path class="st3" d="M509.8,612.9v-20.6l0.2-0.3l172.1-299.9l10.7,0l-1.2,2L509.8,612.9z M512.6,593.1v9.6l175.5-307.7l-4.4,0
				L512.6,593.1z"/>
		</g>
		<g>
			<polygon class="st21" points="472.5,533.4 455.7,503.2 589.9,275.2 626.1,275.2 			"/>
			<path class="st3" d="M472.5,536.1l-18.3-32.9l0.4-0.7l134.6-228.7h39.4L472.5,536.1z M457.3,503.2l15.2,27.4l151.2-254h-33
				L457.3,503.2z"/>
		</g>
		<g>
			<polygon class="st9" points="315.2,180.5 295.2,211.2 317.2,212.5 337,180.6 			"/>
			<path class="st3" d="M317.9,213.9l-25.1-1.5l21.7-33.3l25,0.2L317.9,213.9z M297.6,210l18.8,1.1l18.1-29.1l-18.6-0.1L297.6,210z"
				/>
		</g>
		<g>
			<polygon class="st16" points="272.4,213.4 317.2,214.4 312.6,221.2 267.6,220.4 			"/>
			<path class="st3" d="M313.3,222.6l-48.5-0.9l6.8-9.7l48.1,1L313.3,222.6z M270.1,219.1l41.7,0.8l2.8-4.2l-41.6-0.9L270.1,219.1z"
				/>
		</g>
		<g>
			<path class="st22" d="M151,107"/>
		</g>
	</g>
	<g>
		<path class="st8" d="M104.6,825.4c1.1,15.5,5.5,26.1,18.4,26.1c12.6,0,16.6-8.5,16.6-19.2c0-13-6.6-20.7-28.7-32.1
			c-32.7-16.9-45.1-31.2-45.1-58.9c0-32.2,19.7-53.4,57-53.4c43.9,0,56.5,27.4,56.8,56.4H138c-0.7-13.1-3.1-24.4-15.4-24.4
			c-9.6,0-13.9,6.2-13.9,16.8c0,10.8,4.2,16.4,24.7,26.6c34.9,17.6,49.8,32.5,49.8,64.1c0,31.1-18.2,56-60.5,56
			c-45.8,0-59.8-26.1-60.7-58.1H104.6z"/>
		<path class="st8" d="M210.4,691.5h61.8c32.7,0,56.2,18.1,56.2,57.1c0,39.4-21.1,57.8-58.1,57.8h-16.9V880h-43V691.5z M253.4,773.3
			h11.2c14.9,0,20.6-7.3,20.6-25c0-17.5-7.5-24.2-19.7-24.2h-12.1V773.3z"/>
		<path class="st8" d="M354.1,691.5h53.8c49.2,0,69.3,27.9,69.3,90.6c0,66.8-19.8,97.8-70.8,97.8h-52.3V691.5z M397.6,847.1h8
			c20.1,0,26.1-14.2,26.1-65.6c0-43-5.3-56.7-25.8-56.7h-8.3V847.1z"/>
		<path class="st8" d="M507,691.5h42.3v78.6c9.1-19.2,27.3-57.4,38.4-78.6h47.9l-42.4,73.8L636.4,880h-47.2l-26.6-77.4l-13.3,20.3
			V880H507V691.5z"/>
	</g>
</g>
</svg>
